<?xml version="1.0" standalone="no"?><!DOCTYPE svg PUBLIC "-//W3C//DTD SVG 1.1//EN" "http://www.w3.org/Graphics/SVG/1.1/DTD/svg11.dtd"><svg t="1594145544672" class="icon" viewBox="0 0 1024 1024" version="1.1" xmlns="http://www.w3.org/2000/svg" p-id="1155" xmlns:xlink="http://www.w3.org/1999/xlink" width="200" height="200"><defs><style type="text/css"></style></defs><path d="M962.417778 906.837333l-267.221333-267.662222c50.133333-61.596444 80.256-140.216889 80.256-225.905778 0-197.589333-159.872-357.717333-357.12-357.717333-197.219556 0-357.148444 160.142222-357.148444 357.717333 0 197.575111 159.928889 357.703111 357.148444 357.703111 85.973333 0 164.835556-30.449778 226.474667-81.137778l267.136 267.576889L962.417778 906.837333zM418.332444 699.463111c-157.809778 0-285.696-128.156444-285.696-286.193778 0-158.065778 127.900444-286.179556 285.696-286.179556 157.781333 0 285.710222 128.113778 285.710222 286.179556C704.042667 571.306667 576.113778 699.463111 418.332444 699.463111z" p-id="1156" fill="#bfbfbf"></path></svg>